#!OML:ASF E:/inclinewalkrobotboard/Project1/Captureday1/Session1/subject1.ASF
:FULLY-SPECIFIED
:DEGREES
138
root 0 0 0 -4.315392372058902 -1.2117284254780465 0.9151441337784672
lowerback 12.048211464301591 -0.05217975103671302 -1.4226389461983697
upperback 1.5243904900684146 -0.12332642468468769 1.0866513481271456
thorax -5.1440987934332725 0.010140943689706527 1.8959116998028047
lowerneck -17.426217407318354 -3.139696874664148 -2.2036958432507316
upperneck 18.159230147880436 -3.720206032753237 0.05680935922093555
head 8.445167426637578 -1.9090950321209452 -0.03895272415321105
rclavicle 3.4315291732353632E-15 9.73506472448244E-16
rhumerus -48.947071304446695 -18.31996766736781 -73.00175268389233
rradius 24.75954677427156
rwrist -1.9219361576737235
rhand -22.079610832382276 28.35821923726646
rfingers 7.12502000000006
rthumb 4.319238290449398 -1.9327858621920804
lclavicle -2.2329836197061272E-15 -7.646620182385831E-15
lhumerus -38.50846990864032 0.38692422239990343 84.51376354010404
lradius 27.70545901219168
lwrist 5.8174855399276915
lhand -32.3774075419721 22.552322766082654
lfingers 7.125020000000039
lthumb -5.534313454776655 53.3631151076246
rfemur -26.231471362036487 23.421648903879657 38.303774194369325
rtibia 25.55681901963907
rfoot -9.447865212387262 -12.486559839539899
rtoes -5.009788278389202
lfemur -1.587862430483952 -6.43000593883948 -22.01601539395684
ltibia 19.79678550530045
lfoot -10.138209726960692 -0.6396440897301368
ltoes -6.7714924323803825
139
root 0 0 0 -3.5795049331691082 0.28930415153736533 1.9296821849833794
lowerback 11.836792335439306 -0.45807084895692163 -2.6040927056027225
upperback 1.3454251841537967 -0.7922238691908852 1.0400219823511927
thorax -5.214610618712191 -0.3055600840885051 2.6023067519760668
lowerneck -17.4543000501962 -2.996976888896353 -2.3079615488914715
upperneck 17.891136759955092 -3.42927223686394 -0.17781798263112947
head 8.331428923849233 -1.8008586907698456 -0.05674065973173725
rclavicle 3.393547054938412E-15 1.0306347855769441E-15
rhumerus -49.310952117148254 -18.432563464857925 -72.85618534554185
rradius 24.51432753477017
rwrist -1.729125264830973
rhand -21.993576551254417 28.282575751222964
rfingers 7.125020000000059
rthumb 4.397863883712237 -2.00235464314159
lclavicle -1.5505522817944691E-15 -7.964435986337118E-15
lhumerus -37.68552180276604 -0.23785615376052416 84.33684734801646
lradius 28.134484240196965
lwrist 6.778653586768236
lhand -32.211481792106035 23.1320017227203
lfingers 7.12502000000004
lthumb -5.378590869973831 53.91171172043851
rfemur -27.133201305404356 25.121265879233192 39.408028608806774
rtibia 24.809207474393936
rfoot -9.199148960809827 -12.723446752070728
rtoes -4.75892775239414
lfemur -0.18421192715234014 -6.222397409184724 -22.512626838020307
ltibia 20.611991896928025
lfoot -9.972006572560588 -1.0694297034310445
ltoes -7.181198978420062
140
root 0 0 0 -3.3037608563014267 2.507046732707657 2.567052028818713
lowerback 11.72506670197403 -0.8093774887624325 -3.4608354351713153
upperback 1.2532586217345028 -1.3287622463370543 1.0374820225881527
thorax -5.2168565115111925 -0.5602563744891462 3.1479287120500805
lowerneck -17.589280983681032 -2.8987625185931023 -2.4390158608288295
upperneck 17.672249917831376 -3.203848044274309 -0.32148263294790436
head 8.283184373093231 -1.7158269068766838 -0.06623245523142351
rclavicle 3.2648099194928554E-15 1.1464595502894599E-15
rhumerus -49.896275111977246 -18.61980554563007 -72.66509028873195
rradius 24.112765830145023
rwrist -1.444288859691234
rhand -21.840825372026735 28.127019596132335
rfingers 7.125020000000057
rthumb 4.539114843679279 -2.1494539614201464
lclavicle -6.474322541803894E-16 -8.20549486400234E-15
lhumerus -36.35606454231752 -1.0417308235724718 84.10590120005135
lradius 28.672622565046552
lwrist 7.981294273612388
lhand -31.937444859170277 23.897598621028283
lfingers 7.125020000000041
lthumb -5.12206587259422 54.63103257807733
rfemur -28.36323034035081 27.329209416150206 40.81794116268803
rtibia 23.982224892084265
rfoot -8.644393680906177 -13.29146373804633
rtoes -4.22966922822263
lfemur 1.7745194835870066 -5.805890485843337 -23.084478114290633
ltibia 22.28677389866936
lfoot -9.417978188145627 -1.9396453643898468
ltoes -7.913668835425296
141
root 0 0 0 -3.341649967668406 3.388032950938811 2.6600951719818564
lowerback 11.698010865962996 -0.9080599907268687 -3.6540655108865687
upperback 1.2476264327369062 -1.4689837219139819 1.0476770946658438
thorax -5.189881335199921 -0.6284087082057219 3.2850762298651626
lowerneck -17.654611118845025 -2.8801452885693895 -2.4864935350366566
upperneck 17.629638917440825 -3.154267153637134 -0.33624020944087984
head 8.290844418549414 -1.6957058158590428 -0.06582667361085637
rclavicle 3.1572419347128006E-15 1.2743909112554148E-15
rhumerus -50.18876774881736 -18.75619100548775 -72.74097169486521
rradius 23.889911902171708
rwrist -1.40422036350364
rhand -21.718064055627146 28.003833530482616
rfingers 7.125020000000056
rthumb 4.65492465078194 -2.263626606042015
lclavicle -3.040557575949442E-16 -8.13969172714234E-15
lhumerus -35.65993655596439 -1.3457167066741524 84.08146170760403
lradius 28.858120942637584
lwrist 8.475285198052038
lhand -31.78663360046891 24.21517404480714
lfingers 7.125020000000041
lthumb -4.980467585743124 54.92706603555068
rfemur -28.792873310375242 28.118343392499696 41.359581486585625
rtibia 23.6970063793894
rfoot -8.38893224260649 -13.488915650581024
rtoes -3.9881695411948392
lfemur 2.5360174648787677 -5.515924308285346 -23.244822783404253
ltibia 23.61780523480828
lfoot -8.88289618979456 -2.586111805187496
ltoes -8.426444651285431
142
root 0 0 0 -3.3838643207703676 3.81455997115712 2.6768615115139447
lowerback 11.68765626322936 -0.9516962196802519 -3.7263772967588666
upperback 1.2490079617782914 -1.5287071722879235 1.0572746869268077
thorax -5.17404178977343 -0.6578667796933648 3.3440959083387662
lowerneck -17.688984595231897 -2.8735821367584835 -2.5073385846865106
upperneck 17.61691134070575 -3.135037953092994 -0.34012057775861404
head 8.29929304700131 -1.687510621343558 -0.06636339024480464
rclavicle 3.0888504110965186E-15 1.3622783081331479E-15
rhumerus -50.38306074197648 -18.853613588158936 -72.86153867094231
rradius 23.735010842498873
rwrist -1.4356345375743231
rhand -21.618473756892076 27.902617107319756
rfingers 7.125020000000055
rthumb 4.749603210477744 -2.3570118560451654
lclavicle -1.4221294877403246E-16 -8.068498152239143E-15
lhumerus -35.237876860951275 -1.5070839936940468 84.10250408332197
lradius 28.949194787909562
lwrist 8.75795884695107
lhand -31.68072054435857 24.390856276444662
lfingers 7.125020000000041
lthumb -4.880888273376545 55.08746857098907
rfemur -28.989827441828083 28.50171303631933 41.62524076207072
rtibia 23.56512560248607
rfoot -8.240380773373957 -13.587242067430076
rtoes -3.809178979456828
lfemur 2.796862687500642 -5.247605359390262 -23.242733325742897
ltibia 25.009582562341265
lfoot -8.275027856380635 -3.2196819306187763
ltoes -8.884056021915027
